<?xml version="1.0" encoding="UTF-8" standalone="no"?>
<svg
   xmlns:dc="http://purl.org/dc/elements/1.1/"
   xmlns:cc="http://creativecommons.org/ns#"
   xmlns:rdf="http://www.w3.org/1999/02/22-rdf-syntax-ns#"
   xmlns:svg="http://www.w3.org/2000/svg"
   xmlns="http://www.w3.org/2000/svg"
   xmlns:sodipodi="http://sodipodi.sourceforge.net/DTD/sodipodi-0.dtd"
   xmlns:inkscape="http://www.inkscape.org/namespaces/inkscape"
   width="210mm"
   height="297mm"
   viewBox="0 0 210 297"
   version="1.1"
   id="svg8"
   inkscape:version="1.0.1 (3bc2e813f5, 2020-09-07)"
   sodipodi:docname="small_moon.svg">
  <defs
     id="defs2" />
  <sodipodi:namedview
     id="base"
     pagecolor="#ffffff"
     bordercolor="#666666"
     borderopacity="1.0"
     inkscape:pageopacity="0.0"
     inkscape:pageshadow="2"
     inkscape:zoom="3.959798"
     inkscape:cx="20.856078"
     inkscape:cy="27.607519"
     inkscape:document-units="mm"
     inkscape:current-layer="layer1"
     inkscape:document-rotation="0"
     showgrid="true"
     inkscape:window-width="1364"
     inkscape:window-height="736"
     inkscape:window-x="0"
     inkscape:window-y="15"
     inkscape:window-maximized="1">
    <inkscape:grid
       type="xygrid"
       id="grid833" />
  </sodipodi:namedview>
  <metadata
     id="metadata5">
    <rdf:RDF>
      <cc:Work
         rdf:about="">
        <dc:format>image/svg+xml</dc:format>
        <dc:type
           rdf:resource="http://purl.org/dc/dcmitype/StillImage" />
        <dc:title></dc:title>
      </cc:Work>
    </rdf:RDF>
  </metadata>
  <g
     inkscape:label="Layer 1"
     inkscape:groupmode="layer"
     id="layer1">
    <path
       id="path835"
       style="fill:#000000;fill-rule:evenodd;stroke:#000000;stroke-width:1.51181;stroke-linecap:square;stroke-linejoin:bevel;paint-order:fill markers stroke;fill-opacity:1"
       d="M 24.832031 0 A 24.999999 24.999999 0 0 0 0 25 A 24.999999 24.999999 0 0 0 25 50 A 24.999999 24.999999 0 0 0 50 25 A 24.999999 24.999999 0 0 0 25 0 A 24.999999 24.999999 0 0 0 24.832031 0 z M 25 5 A 19.999999 19.999999 0 0 1 31.673828 6.1464844 A 19.999999 19.999999 0 0 0 18.345703 25 A 19.999999 19.999999 0 0 0 31.671875 43.853516 A 19.999999 19.999999 0 0 1 25 45 A 19.999999 19.999999 0 0 1 5 25 A 19.999999 19.999999 0 0 1 25 5 z "
       transform="scale(0.26458333)" />
  </g>
</svg>
