<?xml version="1.0" encoding="UTF-8" standalone="no"?>
<svg
   xmlns:dc="http://purl.org/dc/elements/1.1/"
   xmlns:cc="http://creativecommons.org/ns#"
   xmlns:rdf="http://www.w3.org/1999/02/22-rdf-syntax-ns#"
   xmlns:svg="http://www.w3.org/2000/svg"
   xmlns="http://www.w3.org/2000/svg"
   xmlns:sodipodi="http://sodipodi.sourceforge.net/DTD/sodipodi-0.dtd"
   xmlns:inkscape="http://www.inkscape.org/namespaces/inkscape"
   width="210mm"
   height="297mm"
   viewBox="0 0 210 297"
   version="1.1"
   id="svg8"
   inkscape:version="1.0.1 (3bc2e813f5, 2020-09-07)"
   sodipodi:docname="moon_meeple.svg">
  <defs
     id="defs2" />
  <sodipodi:namedview
     id="base"
     pagecolor="#ffffff"
     bordercolor="#666666"
     borderopacity="1.0"
     inkscape:pageopacity="0.0"
     inkscape:pageshadow="2"
     inkscape:zoom="3.959798"
     inkscape:cx="8.0608125"
     inkscape:cy="53.011212"
     inkscape:document-units="mm"
     inkscape:current-layer="layer1"
     inkscape:document-rotation="0"
     showgrid="true"
     inkscape:window-width="1364"
     inkscape:window-height="736"
     inkscape:window-x="0"
     inkscape:window-y="15"
     inkscape:window-maximized="1">
    <inkscape:grid
       type="xygrid"
       id="grid833" />
  </sodipodi:namedview>
  <metadata
     id="metadata5">
    <rdf:RDF>
      <cc:Work
         rdf:about="">
        <dc:format>image/svg+xml</dc:format>
        <dc:type
           rdf:resource="http://purl.org/dc/dcmitype/StillImage" />
        <dc:title />
      </cc:Work>
    </rdf:RDF>
  </metadata>
  <g
     inkscape:label="Layer 1"
     inkscape:groupmode="layer"
     id="layer1">
    <path
       id="path835"
       style="fill:#000000;fill-opacity:1;fill-rule:evenodd;stroke:#000000;stroke-width:1.51181;stroke-linecap:square;stroke-linejoin:bevel;paint-order:fill markers stroke"
       d="M 24.832031,0 A 24.999999,24.999999 0 0 0 0,25 24.999999,24.999999 0 0 0 24.832031,50 H 20 15 L 2.3691406,130 H 47.630859 L 35,50 H 30 25 A 24.999999,24.999999 0 0 0 50,25 24.999999,24.999999 0 0 0 25,0 24.999999,24.999999 0 0 0 24.832031,0 Z M 25,5 A 19.999999,19.999999 0 0 1 31.673828,6.1464844 19.999999,19.999999 0 0 0 18.345703,25 19.999999,19.999999 0 0 0 31.671875,43.853516 19.999999,19.999999 0 0 1 25,45 19.999999,19.999999 0 0 1 5,25 19.999999,19.999999 0 0 1 25,5 Z m -6.105469,58.015625 c 0.0708,-0.01134 2.822854,3.455743 2.886719,3.488281 0.06386,0.0325 4.486991,0.221323 4.519531,0.285156 0.03254,0.06387 -2.412615,3.753421 -2.423828,3.824219 C 23.865728,70.684072 25.050683,74.949317 25,75 c -0.05068,0.05068 -4.315924,-1.134257 -4.386719,-1.123047 -0.07079,0.01134 -3.760354,2.45637 -3.824219,2.423828 -0.06386,-0.0325 -0.252614,-4.455668 -0.285156,-4.519531 -0.03254,-0.06387 -3.499494,-2.815924 -3.488281,-2.886719 0.01122,-0.07079 4.158301,-1.619238 4.208984,-1.669922 0.05068,-0.05068 1.599128,-4.19777 1.669922,-4.208984 z m 8.949219,24.193359 c 0.05799,-0.04212 4.084573,1.794922 4.15625,1.794922 0.07168,0 4.098261,-1.837051 4.15625,-1.794922 0.05808,0.04204 -0.44598,4.439646 -0.423828,4.507813 0.02218,0.06814 3.014317,3.328336 2.992187,3.396484 -0.02215,0.06818 -4.359978,0.948101 -4.417968,0.990235 C 34.248647,96.145635 32.071677,100 32,100 c -0.07168,0 -2.248654,-3.854352 -2.306641,-3.896484 -0.05808,-0.04204 -4.39582,-0.922065 -4.417968,-0.990235 -0.02217,-0.06814 2.970037,-3.328313 2.992187,-3.396484 0.02215,-0.06818 -0.481816,-4.465682 -0.423828,-4.507813 z M 16.105469,108.01562 c 0.07079,0.0113 1.619239,4.15831 1.669922,4.20899 0.05068,0.0507 4.197771,1.59913 4.208984,1.66992 0.01122,0.0708 -3.455741,2.82286 -3.488281,2.88672 -0.03254,0.0639 -0.221291,4.48699 -0.285156,4.51953 -0.06387,0.0325 -3.753425,-2.41261 -3.824219,-2.42383 C 14.315924,118.86561 10.050683,120.05068 10,120 c -0.050683,-0.0507 1.13426,-4.31592 1.123047,-4.38672 -0.01122,-0.0708 -2.4563692,-3.76035 -2.4238282,-3.82422 0.032542,-0.0639 4.4556662,-0.25261 4.5195312,-0.28515 0.06387,-0.0325 2.815924,-3.49949 2.886719,-3.48829 z"
       transform="scale(0.26458333)" />
    <path
       style="fill:none;stroke:#000000;stroke-width:0.264583px;stroke-linecap:butt;stroke-linejoin:miter;stroke-opacity:1"
       d="M 5.2916666,11.90625 3.96875,13.229167 H 9.2604166 L 7.9374999,11.90625 Z"
       id="path1445" />
  </g>
</svg>
