<?xml version="1.0" encoding="UTF-8" standalone="no"?>
<svg
   xmlns:dc="http://purl.org/dc/elements/1.1/"
   xmlns:cc="http://creativecommons.org/ns#"
   xmlns:rdf="http://www.w3.org/1999/02/22-rdf-syntax-ns#"
   xmlns:svg="http://www.w3.org/2000/svg"
   xmlns="http://www.w3.org/2000/svg"
   xmlns:sodipodi="http://sodipodi.sourceforge.net/DTD/sodipodi-0.dtd"
   xmlns:inkscape="http://www.inkscape.org/namespaces/inkscape"
   width="500mm"
   height="707mm"
   viewBox="0 0 500 707"
   version="1.1"
   id="svg8"
   inkscape:version="1.0.1 (3bc2e813f5, 2020-09-07)"
   sodipodi:docname="potential_meeple_sun_2.svg">
  <defs
     id="defs2" />
  <sodipodi:namedview
     id="base"
     pagecolor="#ffffff"
     bordercolor="#666666"
     borderopacity="1.0"
     inkscape:pageopacity="0.0"
     inkscape:pageshadow="2"
     inkscape:zoom="1.979899"
     inkscape:cx="54.818386"
     inkscape:cy="85.030645"
     inkscape:document-units="mm"
     inkscape:current-layer="layer1"
     inkscape:document-rotation="0"
     showgrid="true"
     showguides="true"
     inkscape:window-width="1364"
     inkscape:window-height="736"
     inkscape:window-x="0"
     inkscape:window-y="15"
     inkscape:window-maximized="1">
    <inkscape:grid
       type="xygrid"
       id="grid833" />
  </sodipodi:namedview>
  <metadata
     id="metadata5">
    <rdf:RDF>
      <cc:Work
         rdf:about="">
        <dc:format>image/svg+xml</dc:format>
        <dc:type
           rdf:resource="http://purl.org/dc/dcmitype/StillImage" />
        <dc:title />
      </cc:Work>
    </rdf:RDF>
  </metadata>
  <g
     inkscape:label="Layer 1"
     inkscape:groupmode="layer"
     id="layer1">
    <path
       id="path835"
       style="fill:#ff0000;fill-rule:evenodd;stroke:#000000;stroke-width:0.401329;stroke-linecap:square;stroke-linejoin:bevel;paint-order:fill markers stroke"
       inkscape:transform-center-y="-0.33873876"
       d="M 9.6126458,1.0842366 7.9435206,7.0398361 3.3384439,3.7125048 5.3860898,9.5094681 0,10.367166 4.8063234,13.293348 1.1593404,17.934923 6.0503378,16.725693 0.70445832,39.6875 H 18.520833 l -5.345879,-22.961807 4.890998,1.20923 -3.646984,-4.641575 4.806325,-2.926182 -5.386091,-0.8576979 2.047645,-5.7969633 -4.605075,3.3273313 z M 9.59834,8.3309425 a 2.9693958,3.4174387 0 0 1 0.014306,0 2.9693958,3.4174387 0 0 1 2.969396,3.4174385 A 2.9693958,3.4174387 0 0 1 9.6126458,15.165819 2.9693958,3.4174387 0 0 1 6.64325,11.748381 2.9693958,3.4174387 0 0 1 9.59834,8.3309425 Z" />
  </g>
</svg>
