<?xml version="1.0" encoding="UTF-8" standalone="no"?>
<svg
   xmlns:dc="http://purl.org/dc/elements/1.1/"
   xmlns:cc="http://creativecommons.org/ns#"
   xmlns:rdf="http://www.w3.org/1999/02/22-rdf-syntax-ns#"
   xmlns:svg="http://www.w3.org/2000/svg"
   xmlns="http://www.w3.org/2000/svg"
   xmlns:sodipodi="http://sodipodi.sourceforge.net/DTD/sodipodi-0.dtd"
   xmlns:inkscape="http://www.inkscape.org/namespaces/inkscape"
   width="210mm"
   height="297mm"
   viewBox="0 0 210 297"
   version="1.1"
   id="svg8"
   inkscape:version="1.0.1 (3bc2e813f5, 2020-09-07)"
   sodipodi:docname="sun_small_new.svg">
  <defs
     id="defs2" />
  <sodipodi:namedview
     id="base"
     pagecolor="#ffffff"
     bordercolor="#666666"
     borderopacity="1.0"
     inkscape:pageopacity="0.0"
     inkscape:pageshadow="2"
     inkscape:zoom="1.4"
     inkscape:cx="282.5"
     inkscape:cy="358.09524"
     inkscape:document-units="mm"
     inkscape:current-layer="layer1"
     inkscape:document-rotation="0"
     showgrid="true"
     inkscape:snap-grids="true"
     inkscape:snap-page="false"
     inkscape:snap-to-guides="true"
     inkscape:snap-bbox="true"
     inkscape:snap-object-midpoints="true"
     inkscape:snap-global="true"
     inkscape:object-paths="false"
     inkscape:window-width="1364"
     inkscape:window-height="736"
     inkscape:window-x="0"
     inkscape:window-y="15"
     inkscape:window-maximized="1">
    <inkscape:grid
       type="xygrid"
       id="grid30" />
  </sodipodi:namedview>
  <metadata
     id="metadata5">
    <rdf:RDF>
      <cc:Work
         rdf:about="">
        <dc:format>image/svg+xml</dc:format>
        <dc:type
           rdf:resource="http://purl.org/dc/dcmitype/StillImage" />
        <dc:title></dc:title>
      </cc:Work>
    </rdf:RDF>
  </metadata>
  <g
     inkscape:label="Layer 1"
     inkscape:groupmode="layer"
     id="layer1">
    <path
       id="path34"
       style="fill:#ff0000;fill-opacity:1;fill-rule:evenodd;stroke:#000000;stroke-width:1;stroke-linecap:square;stroke-linejoin:bevel;paint-order:fill markers stroke"
       inkscape:transform-center-y="-1.1666666e-06"
       d="m 66.145832,84.666661 -4.819343,6.885368 -8.277016,-1.460894 1.460895,8.277016 -6.885369,4.819349 6.885369,4.81934 -1.460895,8.27701 8.277016,-1.46089 4.819343,6.88537 4.819343,-6.88537 8.277016,1.46089 -1.460894,-8.27701 6.88537,-4.81934 -6.88537,-4.819349 1.460894,-8.277016 -8.277016,1.460894 z m -0.03824,10.583333 a 7.9374999,7.9374999 0 0 1 0.03824,0 7.9374999,7.9374999 0 0 1 7.9375,7.937506 7.9374999,7.9374999 0 0 1 -7.9375,7.93749 7.9374999,7.9374999 0 0 1 -7.9375,-7.93749 7.9374999,7.9374999 0 0 1 7.89926,-7.937506 z" />
  </g>
</svg>
